<?xml version="1.0" encoding="UTF-8"?>
<svg version="1.1" xmlns="http://www.w3.org/2000/svg" width="5204" height="1184">
<path d="M0 0 C0 195.36 0 390.72 0 592 C98.01 592 196.02 592 297 592 C290.24996103 599.87504547 290.24996103 599.87504547 286.52027321 603.60556793 C285.67376217 604.45468671 284.82725114 605.30380549 283.95508826 606.17865515 C282.58291146 607.54748586 282.58291146 607.54748586 281.18301392 608.94396973 C280.18924909 609.9388883 279.19570212 610.9340245 278.20235288 611.92935801 C275.4858153 614.65005405 272.76618727 617.36764202 270.04601812 620.08470654 C267.10753983 623.02091671 264.17194743 625.9600098 261.23597717 628.89872742 C255.48907868 634.65006763 249.73948587 640.39870699 243.98891594 646.14637601 C239.31385315 650.81917828 234.63976992 655.49295829 229.96638107 660.16743469 C228.96777207 661.16627355 228.96777207 661.16627355 227.94898915 662.18529096 C226.59644497 663.53815487 225.24390303 664.89102103 223.89136331 666.24388939 C211.2143312 678.92377166 198.53423831 691.60058952 185.85309367 704.27635866 C174.97975324 715.1452325 164.10903588 726.01672405 153.24023438 736.89013672 C140.61064508 749.52508172 127.97942969 762.15839745 115.34562814 774.78913069 C113.99750016 776.13694014 112.64937425 777.48475167 111.30125046 778.83256531 C110.63799551 779.49566598 109.97474056 780.15876666 109.29138697 780.84196129 C104.62489073 785.5075953 99.95955345 790.17438625 95.29466629 794.84162903 C89.6063984 800.53270621 83.91634264 806.22198863 78.22401215 811.90900242 C75.32154321 814.80884944 72.41986808 817.70947878 69.52036858 820.61229515 C66.86267082 823.27298708 64.20264914 825.93133303 61.54080729 828.58787888 C60.12967757 829.99737409 58.72098435 831.40930735 57.31239855 832.82134485 C53.59375691 836.52860106 49.88685166 840.14136552 45.8521204 843.50377369 C42.12897776 846.70161826 39.28378447 850.29755026 36.33336842 854.2049998 C24.55365117 869.68547154 9.71122911 888.52020608 -10.63514793 891.53931361 C-26.28873251 892.86279111 -42.05739698 891.04291131 -57.6187985 889.33458644 C-66.10473427 888.42457347 -74.60980066 887.91917702 -83.12860107 887.4289093 C-84.73010367 887.33529828 -86.33160071 887.24159203 -87.93309224 887.1477918 C-90.36081954 887.00596464 -92.78857099 886.86464521 -95.21641917 886.72490133 C-100.98308494 886.3914718 -106.74717448 886.02632185 -112.51096153 885.6465826 C-149.502445 883.22243663 -186.47063213 881.71098841 -223.546875 882.44921875 C-224.77459522 882.47350386 -224.77459522 882.47350386 -226.02711788 882.49827957 C-282.6300871 883.70084906 -324.15685142 895.05608298 -364.96948242 937.20581055 C-370.71702818 943.3283669 -376.17757293 949.68334621 -381.5625 956.125 C-382.22501786 956.91405495 -382.88753572 957.7031099 -383.57012987 958.51607561 C-398.23493411 976.04378034 -411.91397414 994.20422837 -423.86565876 1013.69973469 C-429.59562134 1022.97197381 -429.59562134 1022.97197381 -433.88050842 1026.37852478 C-439.43146113 1030.82544042 -442.96048585 1036.89111865 -446.85650563 1042.75041699 C-462.05883756 1065.46913281 -479.05580069 1086.7297026 -496.875 1107.4375 C-497.65563025 1108.34830543 -498.43626051 1109.25911085 -499.24054623 1110.19751644 C-540.88264965 1158.56342661 -582.03045658 1187.85124474 -645.75017686 1192.96093863 C-680.67617032 1195.5525897 -715.66237695 1194.98637898 -750.625 1193.625 C-752.35748652 1193.5592346 -754.08997548 1193.49353337 -755.82246685 1193.42789602 C-800.67102875 1191.70875877 -845.35116157 1188.56390328 -890 1184 C-899.12038753 1141.78271406 -904.98753171 1099.48805583 -908.2478801 1056.43391198 C-908.43682849 1053.94634066 -908.63104212 1051.45921441 -908.82533932 1048.97205591 C-915.47068815 962.47918282 -903.16204512 892.59425311 -845.70628314 825.31372637 C-814.47671961 789.175068 -780.27883983 755.8516461 -745.28392583 723.4032529 C-742.61758921 720.93062761 -739.95396148 718.45511076 -737.29070425 715.97916937 C-699.79681961 681.14865378 -661.59516351 647.16359203 -622.30712891 614.36694336 C-621.60271661 613.77883654 -620.89830432 613.19072972 -620.17254619 612.58480148 C-616.20434843 609.27484223 -612.22885693 605.97397551 -608.24187133 602.68666726 C-607.05232015 601.7058096 -605.86381352 600.72368359 -604.67641994 599.74021512 C-603.07292099 598.41405017 -601.46415154 597.09463011 -599.85321999 595.77751064 C-598.95783945 595.04236624 -598.06245891 594.30722184 -597.13994563 593.54980034 C-595 592 -595 592 -593 592 C-593 689.68 -593 787.36 -593 888 C-495.32 888 -397.64 888 -297 888 C-299.85398437 848.04679688 -302.70796875 808.09359375 -305.6484375 766.9296875 C-308.37107241 717.93867062 -308.37107241 717.93867062 -309.30941999 694.21531227 C-309.43561593 691.03130804 -309.56252448 687.84733415 -309.69012988 684.66338608 C-310.69088166 659.60501781 -311.53930646 634.54304283 -312.29592937 609.47619401 C-312.37485923 606.87963083 -312.45530035 604.28311887 -312.53625154 601.68661797 C-315.11130126 518.97732146 -316.56031204 435.50313764 -226.23300171 182.65823364 C-210.81432797 166.2799172 -194.05680943 151.48535025 -176.70965874 137.19536364 C-174.49305462 135.36927825 -172.28142077 133.53730392 -170.07024288 131.70465374 C-134.89764114 102.61718151 -98.15035064 76.19018511 -58.47122204 53.57780027 C-50.76209411 49.11540756 -44.51257222 43.65542691 -38.25219727 37.34985352 C-37.41515762 36.50951065 -36.57811798 35.66916779 -35.7157135 34.80335999 C-34.84144211 33.92079025 -33.96717072 33.03822052 -33.06640625 32.12890625 C-31.66343442 30.72015078 -30.26045993 29.31139796 -28.85732174 27.90280819 C-26.42354997 25.45818902 -23.99314776 23.01022468 -21.5625 20.5625 C-18.63238778 17.61199062 -15.70166661 14.6621038 -12.76707458 11.71604919 C-10.94627412 9.88768749 -9.12774463 8.05706099 -7.31166077 6.22401428 C-6.08919899 4.99659767 -6.08919899 4.99659767 -4.84204102 3.74438477 C-4.12226578 3.01937271 -3.40249054 2.29436066 -2.66090393 1.54737854 C-1 0 -1 0 0 0 Z " fill="#F8485E" transform="translate(890,0)"/>
<path d="M0 0 C0.56928223 0.45793945 1.13856445 0.91587891 1.72509766 1.38769531 C13.08861186 10.62074728 22.63796131 20.76555357 32 32 C32.33 11.21 32.66 -9.58 33 -31 C68.31 -31 103.62 -31 140 -31 C140.06617808 26.51350572 140.12156064 84.02697653 140.15319599 141.54050945 C140.15693775 148.3356815 140.16082745 155.13085347 140.16479492 161.92602539 C140.1651872 162.60219955 140.16557948 163.27837371 140.16598364 163.975038 C140.17875049 185.86206615 140.20127152 207.74907095 140.22889166 229.63608498 C140.25804613 252.7811737 140.27599952 275.92624856 140.28226548 299.07135695 C140.28637491 312.9259063 140.29933859 326.78038858 140.3237494 340.63491728 C140.33964829 350.14480527 140.34439097 359.65465875 140.34050413 369.16455904 C140.33858905 374.64530497 140.34145513 380.12593397 140.35761642 385.60665894 C140.37233906 390.63654751 140.37287313 395.66624179 140.36269668 400.69613978 C140.36144109 402.50400681 140.36514115 404.31188655 140.37464955 406.11972902 C140.45259766 421.87185367 138.85107919 437.35340508 134.3125 452.5 C134.05903809 453.36254395 133.80557617 454.22508789 133.54443359 455.11376953 C118.00517182 506.18732397 80.47844747 546.59157291 33.90625 571.4921875 C-2.31973349 590.29617812 -41.8869709 599.39028164 -82.56469727 599.22705078 C-84.5671793 599.22648516 -86.56966176 599.22680617 -88.57214355 599.22793579 C-93.95323394 599.2285044 -99.33423328 599.21683068 -104.71530271 599.20278788 C-110.35934554 599.19019759 -116.00339097 599.18910353 -121.64744568 599.18673706 C-132.31064719 599.1805465 -142.97380718 599.16416881 -153.63699049 599.14403808 C-165.78708727 599.12160321 -177.93718614 599.11066665 -190.08729851 599.10064721 C-215.05822193 599.07980018 -240.02910863 599.04467183 -265 599 C-264.69156956 596.17080824 -264.38151909 593.34180904 -264.0705719 590.51289368 C-263.98464232 589.72313786 -263.89871274 588.93338204 -263.81017923 588.11969423 C-262.94093023 580.23317651 -261.82119409 572.38993195 -260.65234375 564.54296875 C-260.43315374 563.056132 -260.2142109 561.56925879 -259.99549866 560.08235168 C-259.54281552 557.00927997 -259.08807564 553.93652307 -258.6315918 550.86401367 C-258.04794018 546.93524506 -257.46830858 543.00589637 -256.89002132 539.07633495 C-256.44072003 536.02468367 -255.99001762 532.97324075 -255.53882027 529.92186928 C-255.32445494 528.47188672 -255.11036353 527.02186364 -254.89655876 525.57179832 C-254.59894676 523.55572655 -254.29939308 521.53994169 -253.99975586 519.52416992 C-253.83035995 518.38155197 -253.66096405 517.23893402 -253.48643494 516.06169128 C-253.05655833 513.35598623 -252.54595309 510.68402331 -252 508 C-251.12021988 507.99668985 -250.24043976 507.99337971 -249.33399963 507.98996925 C-227.81994308 507.90836583 -206.30595408 507.81615515 -184.79199219 507.71247292 C-174.38754715 507.66258042 -163.98310907 507.61613713 -153.57861328 507.578125 C-144.49866496 507.54494292 -135.41877477 507.50497226 -126.33889103 507.45720994 C-121.54153313 507.43220224 -116.7442125 507.41034878 -111.94680786 507.39665604 C-49.8523224 508.50501387 -49.8523224 508.50501387 3 480 C3.55429688 479.48179687 4.10859375 478.96359375 4.6796875 478.4296875 C21.27003226 461.3012775 23.35054158 434.12431342 23.1953125 411.6640625 C23.1915711 410.0473956 23.18872948 408.4307264 23.18673706 406.8140564 C23.17918915 402.60886098 23.15961942 398.40380909 23.1373291 394.19866943 C23.11667738 389.88767436 23.1076945 385.57665554 23.09765625 381.265625 C23.0763629 372.84368496 23.04233731 364.42186045 23 356 C22.06551025 356.8768042 21.13102051 357.7536084 20.16821289 358.65698242 C18.91563382 359.82742516 17.66294226 360.99774752 16.41015625 362.16796875 C15.79740845 362.74349487 15.18466064 363.319021 14.55334473 363.9119873 C4.91136862 372.90501484 -5.52190505 380.4923568 -17 387 C-17.68803711 387.391875 -18.37607422 387.78375 -19.08496094 388.1875 C-68.40504251 415.96123709 -124.60185336 420.55261696 -179 406 C-212.42851892 396.56928434 -241.66823624 379.70841675 -267 356 C-268.40572266 354.69289063 -268.40572266 354.69289063 -269.83984375 353.359375 C-282.78409724 341.04131801 -293.09651195 326.43511572 -302 311 C-302.4134668 310.28682617 -302.82693359 309.57365234 -303.25292969 308.83886719 C-318.94758617 281.39432952 -327.78687584 250.37816561 -331 219 C-331.0928125 218.12214844 -331.185625 217.24429687 -331.28125 216.33984375 C-332.11677302 207.56685205 -332.24313757 198.80484038 -332.25 190 C-332.25067474 189.21475952 -332.25134949 188.42951904 -332.25204468 187.6204834 C-332.211439 157.59657155 -327.87951897 128.40037573 -318 100 C-317.77763672 99.33661621 -317.55527344 98.67323242 -317.32617188 97.98974609 C-304.94993356 61.16581911 -280.85555938 26.67266321 -250 3 C-249.43555176 2.55962402 -248.87110352 2.11924805 -248.28955078 1.66552734 C-229.80285224 -12.61806801 -208.4214915 -23.47222399 -186 -30 C-185.20158691 -30.23509277 -184.40317383 -30.47018555 -183.58056641 -30.71240234 C-178.08959515 -32.30279189 -172.57118644 -33.7197032 -167 -35 C-166.33033203 -35.15452637 -165.66066406 -35.30905273 -164.97070312 -35.46826172 C-109.54507479 -47.77430158 -44.73657192 -36.00379505 0 0 Z M-185.65625 82.22265625 C-203.92136994 103.86682338 -206.48129855 128.98866182 -206.43359375 156.36328125 C-206.43816873 158.69003957 -206.44347814 161.01679655 -206.44947815 163.34355164 C-206.45835729 168.1954806 -206.45604622 173.04724452 -206.44604492 177.89916992 C-206.43456921 184.06132195 -206.45477294 190.22289967 -206.48396206 196.38497639 C-206.50246868 201.18366507 -206.5020029 205.98221981 -206.49632454 210.78093529 C-206.49617305 213.05031323 -206.5020716 215.31970129 -206.51461601 217.58904457 C-206.6461226 245.27332245 -202.13884529 270.7774124 -182.75 291.75 C-155.21483013 317.26423997 -115.25813271 321.02781063 -79.43603516 319.85961914 C-51.29323864 318.52472419 -22.27435803 312.5910334 -1 293 C-0.35804688 292.44957031 0.28390625 291.89914062 0.9453125 291.33203125 C15.45951889 278.15209047 22.27314076 256.06791517 24 237 C24.14165833 233.6403412 24.1569846 230.28471007 24.16113281 226.92236328 C24.16609772 225.94549057 24.17106262 224.96861786 24.17617798 223.96214294 C24.19071311 220.74819211 24.19758924 217.53429073 24.203125 214.3203125 C24.20595238 213.21376186 24.20877975 212.10721123 24.21169281 210.96712875 C24.22665496 205.10438552 24.23590161 199.24166668 24.24023438 193.37890625 C24.24569638 187.36999218 24.26968499 181.36130728 24.29820633 175.35246468 C24.316983 170.69197982 24.32204637 166.03154835 24.32357025 161.3710289 C24.3265665 159.15860627 24.33449035 156.94618387 24.34775543 154.73379898 C24.51009453 125.56259115 20.03114763 99.89719093 -0.625 77.9375 C-24.49890076 54.60701125 -61.40835372 50.7399078 -93.11181641 50.81884766 C-126.40865528 51.23921476 -161.75080503 57.03656244 -185.65625 82.22265625 Z " fill="#000000" transform="translate(2433,452)"/>
<path d="M0 0 C38.61 0 77.22 0 117 0 C117.33 64.35 117.66 128.7 118 195 C126.4753968 185.93397015 126.4753968 185.93397015 134.75 176.6875 C159.6790103 148.0585636 195.25919992 129.31269805 232 121 C232.84788086 120.80390137 233.69576172 120.60780273 234.56933594 120.40576172 C261.2091217 114.52268877 292.55299653 113.8106372 319 121 C319.71897461 121.18723633 320.43794922 121.37447266 321.17871094 121.56738281 C363.26956469 132.7619645 397.83541685 161.06737598 419.79296875 198.24682617 C437.29242624 228.76465255 445.20710343 263.21226555 445.12025452 298.24981689 C445.12153615 300.17017372 445.12153615 300.17017372 445.12284368 302.12932563 C445.12505981 305.64811447 445.12110727 309.16687236 445.11606562 312.68565726 C445.11171951 316.49325283 445.11321048 320.30084686 445.1139679 324.10844421 C445.11449051 330.69386453 445.11137124 337.27927488 445.10573006 343.86469269 C445.09757934 353.38592822 445.09499618 362.90715898 445.09374207 372.42839763 C445.09155715 387.87853734 445.08491227 403.32867175 445.07543945 418.77880859 C445.06625083 433.78108697 445.0591771 448.78336391 445.05493164 463.78564453 C445.05453756 465.17434895 445.05453756 465.17434895 445.05413551 466.59110799 C445.05283041 471.23590653 445.05156671 475.88070508 445.05032361 480.52550364 C445.03996844 519.01700713 445.02153955 557.50850082 445 596 C406.72 596 368.44 596 329 596 C328.98018066 586.95102295 328.96036133 577.9020459 328.93994141 568.57885742 C328.87502609 539.56961312 328.80048647 510.5604006 328.71994839 481.55119563 C328.7074307 477.03925758 328.69499774 472.52731929 328.68261719 468.01538086 C328.6789182 466.66810821 328.6789182 466.66810821 328.67514448 465.29361794 C328.63550573 450.78264527 328.60271924 436.2716649 328.57250018 421.76066991 C328.54129975 406.85230156 328.50265417 391.94396566 328.45720994 377.03563386 C328.42943797 367.84895481 328.40735648 358.66229928 328.39273749 349.47558973 C328.3821313 343.16144943 328.36424235 336.8473549 328.34083296 330.53324922 C328.32756986 326.89957957 328.31731906 323.26597357 328.31578636 319.63227844 C328.6057298 274.78364656 328.6057298 274.78364656 306.90625 236.87890625 C285.32311414 216.77771106 254.06274781 213.5446975 225.8125 213.6875 C225.05574982 213.68932281 224.29899963 213.69114563 223.51931763 213.69302368 C193.21885256 213.81518854 161.89556668 218.61042011 138.83203125 240.01171875 C122.18330714 257.43330433 117.68212275 280.92301602 117.7215271 304.26254272 C117.7157347 305.51998814 117.7099423 306.77743356 117.70397437 308.07298338 C117.68835842 311.51884938 117.68475401 314.96463347 117.68332577 318.41053057 C117.67959908 322.14313043 117.66442778 325.87568701 117.65071106 329.60826111 C117.62853612 336.06049511 117.61346441 342.51271352 117.60334396 348.96497726 C117.58870139 358.29363454 117.56314927 367.62223742 117.53501268 376.9508626 C117.48964554 392.08929758 117.45298928 407.22774044 117.421875 422.36621094 C117.39164804 437.06381613 117.35727884 451.76140211 117.31738281 466.45898438 C117.31492126 467.3663399 117.31245972 468.27369542 117.30992357 469.20854656 C117.29754817 473.7608996 117.28509179 478.31325241 117.27259517 482.86560512 C117.16917841 520.5770473 117.08154196 558.28850293 117 596 C78.39 596 39.78 596 0 596 C0 399.32 0 202.64 0 0 Z " fill="#000000" transform="translate(2661,295)"/>
<path d="M0 0 C8.0089092 7.35577623 14.96216893 15.33194646 21.921875 23.68359375 C22.251875 2.89359375 22.581875 -17.89640625 22.921875 -39.31640625 C58.231875 -39.31640625 93.541875 -39.31640625 129.921875 -39.31640625 C129.921875 117.43359375 129.921875 274.18359375 129.921875 435.68359375 C91.641875 435.68359375 53.361875 435.68359375 13.921875 435.68359375 C13.426875 407.96359375 13.426875 407.96359375 12.921875 379.68359375 C7.971875 384.30359375 3.021875 388.92359375 -2.078125 393.68359375 C-43.92132697 426.11207527 -95.66759021 442.91556672 -148.74658203 436.91479492 C-191.20296635 431.19513982 -229.21225061 413.08292995 -261.078125 384.68359375 C-261.60809082 384.2153418 -262.13805664 383.74708984 -262.68408203 383.26464844 C-268.91091114 377.74682403 -274.77381292 372.11019903 -280.078125 365.68359375 C-280.81160156 364.83796875 -281.54507813 363.99234375 -282.30078125 363.12109375 C-322.84953587 315.82492354 -342.28421585 254.89234395 -342.328125 193.12109375 C-342.32879974 192.26321259 -342.32947449 191.40533142 -342.33016968 190.52145386 C-342.26569772 138.61188937 -328.99631606 84.21162763 -298.078125 41.68359375 C-297.39492187 40.72839844 -296.71171875 39.77320313 -296.0078125 38.7890625 C-283.95340156 22.30605973 -270.28613608 7.16118958 -254.078125 -5.31640625 C-253.53349609 -5.74276367 -252.98886719 -6.16912109 -252.42773438 -6.60839844 C-242.5542228 -14.3044184 -232.20038693 -20.58903593 -221.078125 -26.31640625 C-220.37961426 -26.67863281 -219.68110352 -27.04085938 -218.96142578 -27.4140625 C-149.10199655 -63.19370875 -58.67721522 -52.54831915 0 0 Z M-196.66015625 74.90234375 C-215.86670299 96.99452676 -216.55380287 124.54390008 -216.48110151 152.25099373 C-216.47340702 156.10984017 -216.48057727 159.96866717 -216.48526001 163.82751465 C-216.49068949 170.30285543 -216.48360036 176.77809294 -216.46923828 183.25341797 C-216.45291718 190.69707757 -216.4582077 198.14049048 -216.4747175 205.58414412 C-216.4884131 212.02120277 -216.49021292 218.45818797 -216.48240149 224.89525652 C-216.47776897 228.71965599 -216.47697604 232.54394024 -216.48701096 236.36833191 C-216.55327964 265.58018009 -214.496153 291.97969679 -193.50390625 314.27734375 C-168.45995877 339.11964914 -132.23611823 343.91908993 -98.38378906 343.86694336 C-64.98768342 343.48839057 -32.92676863 337.41469804 -7.890625 313.87109375 C9.17853722 296.25131339 14.24592223 270.7711246 14.1965332 247.10083008 C14.20164413 245.81111298 14.20675507 244.52139587 14.21202087 243.19259644 C14.22526587 239.69430576 14.22600569 236.19612408 14.22345757 232.69781327 C14.22237739 229.75622041 14.22729795 226.81464867 14.232063 223.87306041 C14.24310924 216.919833 14.24362401 209.96665964 14.23754883 203.01342773 C14.2315203 195.89081849 14.24380276 188.76840736 14.2651189 181.64583188 C14.28286002 175.48651574 14.28871654 169.32726193 14.28548115 163.16792125 C14.28368709 159.50883788 14.28611238 155.84989568 14.30019569 152.19083595 C14.41044362 120.86754141 11.7354967 93.26467731 -10.828125 69.55859375 C-35.68509386 45.33898306 -74.01629807 42.20814646 -106.87109375 42.53125 C-140.1862887 43.15613585 -172.70464626 50.24116758 -196.66015625 74.90234375 Z " fill="#000000" transform="translate(4316.078125,462.31640625)"/>
<path d="M0 0 C0.92406143 -0.00705963 1.84812286 -0.01411926 2.80018616 -0.02139282 C41.1775023 -0.24801903 41.1775023 -0.24801903 58.0859375 3.203125 C59.09994629 3.40180176 60.11395508 3.60047852 61.15869141 3.80517578 C103.53727138 12.28089178 141.77692939 30.31529608 173.0859375 60.203125 C173.95089844 61.01523437 174.81585938 61.82734375 175.70703125 62.6640625 C192.38486648 78.74347306 204.68352663 99.32469221 212.4609375 121.078125 C212.81889404 122.07537598 212.81889404 122.07537598 213.18408203 123.09277344 C215.02306866 128.4780922 215.94581211 133.50249807 217.0859375 139.203125 C179.7959375 139.203125 142.5059375 139.203125 104.0859375 139.203125 C102.1059375 130.293125 102.1059375 130.293125 100.0859375 121.203125 C94.85771087 106.50756907 87.20395818 95.44646275 72.8984375 88.453125 C39.06709062 74.30113905 -12.79513182 73.90008914 -46.98828125 87.76953125 C-58.21984505 93.00283287 -67.95763803 100.5609317 -72.9140625 112.203125 C-75.88767734 120.55143237 -76.37467459 128.39459191 -76.2890625 137.203125 C-76.30066406 138.39679688 -76.31226562 139.59046875 -76.32421875 140.8203125 C-76.28644839 152.3276818 -74.34022653 163.07955205 -66.9140625 172.203125 C-52.99878974 185.03759988 -34.24089804 188.52123998 -16.0546875 190.57421875 C-14.40782455 190.76208702 -14.40782455 190.76208702 -12.72769165 190.95375061 C-1.89467561 192.15371701 8.95693988 193.13522775 19.8125 194.10546875 C20.73428165 194.18797379 21.65606331 194.27047882 22.60577774 194.35548401 C31.24752366 195.1280208 39.88970023 195.8955517 48.53320312 196.64819336 C104.60235457 201.54002908 163.30644809 209.25964569 202.15625 254.71875 C223.02717498 281.58900969 229.00856168 313.89385906 225.66015625 347.37109375 C222.50830375 371.4052867 211.75418353 395.75822777 196.0859375 414.203125 C195.40402344 415.01136719 194.72210938 415.81960938 194.01953125 416.65234375 C191.76590452 419.22969587 189.44488653 421.7217267 187.0859375 424.203125 C186.58465332 424.73695801 186.08336914 425.27079102 185.56689453 425.82080078 C173.54192884 438.55755817 160.27851651 448.47436114 145.0859375 457.203125 C144.47621094 457.55584473 143.86648438 457.90856445 143.23828125 458.27197266 C118.9085233 472.2001447 91.69712293 480.76216511 64.0859375 485.203125 C63.14733887 485.35410645 62.20874023 485.50508789 61.24169922 485.66064453 C-4.21854685 495.62970123 -80.5426495 485.0548993 -134.9140625 445.203125 C-135.9659375 444.43484375 -137.0178125 443.6665625 -138.1015625 442.875 C-145.8297298 437.12542631 -152.93788595 430.83554793 -159.9140625 424.203125 C-160.59726562 423.584375 -161.28046875 422.965625 -161.984375 422.328125 C-173.72586638 411.3235473 -182.646801 397.44768245 -189.9140625 383.203125 C-190.23068848 382.59823242 -190.54731445 381.99333984 -190.87353516 381.37011719 C-196.35352055 370.8222184 -202.9140625 357.22831947 -202.9140625 345.203125 C-188.19796685 345.17979506 -173.48187365 345.16214536 -158.76576328 345.15131283 C-151.93327276 345.14615007 -145.10079371 345.13910777 -138.26831055 345.12768555 C-131.68070945 345.11667793 -125.09311719 345.11084877 -118.50550652 345.10824776 C-115.98597971 345.106393 -113.46645359 345.10277143 -110.94693184 345.09739494 C-107.43148485 345.09018824 -103.91608789 345.0891339 -100.40063477 345.08959961 C-99.34759659 345.08600433 -98.29455841 345.08240906 -97.20960999 345.07870483 C-95.78134888 345.08076683 -95.78134888 345.08076683 -94.32423401 345.08287048 C-93.49185494 345.08194869 -92.65947588 345.0810269 -91.80187321 345.08007717 C-89.9140625 345.203125 -89.9140625 345.203125 -88.9140625 346.203125 C-88.60057083 347.90614731 -88.2925786 349.61039406 -88.01464844 351.31958008 C-85.45797991 366.87858167 -80.05605849 382.02707755 -67.54296875 392.359375 C-45.23514119 408.00468645 -16.21222755 408.73545321 10.03564453 408.59423828 C13.58274771 408.57813948 17.12871197 408.59419783 20.67578125 408.61328125 C48.16265063 408.63831201 81.22437113 407.0204524 102.34375 387.0703125 C112.8708681 375.92166713 114.4500144 362.99914151 114.3359375 348.140625 C114.34367187 347.12935547 114.35140625 346.11808594 114.359375 345.07617188 C114.33069348 333.94057246 112.87374088 322.98465796 105.40234375 314.23046875 C79.87021313 290.0784533 30.23237119 293.28279615 -2.35870361 290.41668701 C-8.77023815 289.85243156 -15.18093006 289.27990081 -21.59075356 288.69651794 C-24.53522532 288.43170548 -27.48053118 288.17850517 -30.42607117 287.92590332 C-78.630257 283.63876389 -127.5660935 269.05873872 -160.3515625 231.36328125 C-179.79120567 208.0078967 -189.00848419 177.50269857 -186.60546875 147.328125 C-184.16240924 122.03270427 -174.61442604 98.17446866 -158.9140625 78.203125 C-158.26179688 77.3471875 -157.60953125 76.49125 -156.9375 75.609375 C-141.83352091 56.37584357 -122.99199061 41.41155151 -101.9140625 29.203125 C-101.26034668 28.8220459 -100.60663086 28.4409668 -99.93310547 28.04833984 C-70.21340494 10.94803655 -34.40681067 0.17507788 0 0 Z " fill="#000000" transform="translate(4693.9140625,411.796875)"/>
<path d="M0 0 C1.02136916 0.98903029 2.04216785 1.97864992 3.0625 2.96875 C3.95001953 3.81759766 3.95001953 3.81759766 4.85546875 4.68359375 C35.50993735 34.07396055 54.7432149 70.83752755 66.9375 111.21875 C67.14084961 111.88535645 67.34419922 112.55196289 67.55371094 113.23876953 C68.91548625 117.91057931 69.4436817 122.01820362 70.0625 126.96875 C29.4725 126.96875 -11.1175 126.96875 -52.9375 126.96875 C-53.9275 120.03875 -54.9175 113.10875 -55.9375 105.96875 C-61.05859004 84.2715001 -67.98859578 64.16096349 -87.0546875 50.78125 C-119.76433979 30.83818255 -166.53081896 30.47229787 -202.69946289 39.23657227 C-225.0245806 45.0433253 -243.48885434 56.83575844 -255.625 76.78125 C-269.32062642 101.24661902 -270.25867088 128.59031007 -270.203125 155.9375 C-270.20447652 158.31245971 -270.20642107 160.68741915 -270.20892334 163.06237793 C-270.21185172 168.01085068 -270.20765121 172.95925064 -270.19824219 177.90771484 C-270.18684917 184.20103503 -270.19342099 190.49418452 -270.20538712 196.78749847 C-270.21266787 201.68301646 -270.21028947 206.57849501 -270.20513153 211.47401428 C-270.20381216 213.79248577 -270.20538151 216.11096102 -270.21009064 218.4294281 C-270.23656353 235.11923646 -270.02742424 251.8448405 -265.75 268.09375 C-265.53569336 268.92011963 -265.32138672 269.74648926 -265.10058594 270.59790039 C-258.89668155 293.41063085 -246.49840025 311.99745569 -225.73730469 323.96826172 C-209.54262498 332.97067591 -190.36821217 337.06911493 -171.92578125 337.171875 C-171.08334869 337.17888931 -170.24091614 337.18590363 -169.37295532 337.19313049 C-166.66524878 337.21056048 -163.95776059 337.21698337 -161.25 337.21875 C-160.32776642 337.21942474 -159.40553284 337.22009949 -158.45535278 337.22079468 C-129.82257142 337.18743586 -99.46008814 334.19148784 -77.9375 312.96875 C-61.00930428 294.30362215 -56.100443 269.97253984 -53.24707031 245.70849609 C-52.9375 243.96875 -52.9375 243.96875 -51.9375 242.96875 C-50.35595152 242.87280775 -48.77010875 242.8468704 -47.18565369 242.84849548 C-46.15775223 242.84712082 -45.12985077 242.84574615 -44.07080078 242.84432983 C-42.36500854 242.84972275 -42.36500854 242.84972275 -40.62475586 242.85522461 C-39.43467422 242.85507858 -38.24459259 242.85493256 -37.01844788 242.8547821 C-33.74586726 242.85536106 -30.47332893 242.86039019 -27.20075679 242.86735606 C-23.78411335 242.87359033 -20.36746917 242.87419346 -16.95082092 242.87538147 C-10.47680733 242.87849457 -4.00281054 242.88670767 2.47119564 242.89673096 C9.8398792 242.90789275 17.20856355 242.91340271 24.57725346 242.91842639 C39.73901169 242.92889031 54.90075417 242.94648934 70.0625 242.96875 C68.99591537 251.77232181 68.99591537 251.77232181 67.8984375 255.67578125 C67.55208252 256.91086426 67.55208252 256.91086426 67.19873047 258.17089844 C66.94752441 259.03231445 66.69631836 259.89373047 66.4375 260.78125 C66.16953613 261.70067383 65.90157227 262.62009766 65.62548828 263.56738281 C55.37652063 298.07836585 38.97549814 330.03606363 14.35546875 356.48828125 C12.39981934 358.60384748 10.53684119 360.76118291 8.6875 362.96875 C-5.15974382 378.77581255 -22.88959218 390.52609241 -40.9375 400.96875 C-41.86997559 401.51740723 -41.86997559 401.51740723 -42.82128906 402.07714844 C-66.93770736 416.16600499 -94.47387917 423.87885859 -121.9375 427.96875 C-122.72318359 428.08734375 -123.50886719 428.2059375 -124.31835938 428.328125 C-185.31107055 437.06365397 -250.93950193 422.07132646 -300.46655273 385.17529297 C-318.93445969 371.1625008 -336.54241351 354.99008111 -349.9375 335.96875 C-350.40526855 335.31293945 -350.87303711 334.65712891 -351.35498047 333.98144531 C-391.55670691 277.16230022 -405.65038946 206.35807479 -393.9375 137.96875 C-387.32890265 99.84582122 -372.33286063 62.25110807 -347.9375 31.96875 C-347.22207031 31.06253906 -346.50664062 30.15632813 -345.76953125 29.22265625 C-340.12887797 22.18431897 -334.12016041 15.52918847 -327.9375 8.96875 C-327.24785156 8.2365625 -326.55820313 7.504375 -325.84765625 6.75 C-312.97759815 -6.51484515 -297.00986066 -17.95839461 -280.9375 -27.03125 C-280.14408203 -27.48113281 -279.35066406 -27.93101562 -278.53320312 -28.39453125 C-263.85994312 -36.61502725 -248.94470655 -42.89681097 -232.9375 -48.03125 C-232.11942871 -48.29518555 -231.30135742 -48.55912109 -230.45849609 -48.83105469 C-153.30209237 -73.20662286 -59.37035713 -56.14370729 0 0 Z " fill="#000000" transform="translate(3861.9375,470.03125)"/>
<path d="M0 0 C39.93 0 79.86 0 121 0 C121 161.37 121 322.74 121 489 C207.79 489 294.58 489 384 489 C384 524.31 384 559.62 384 596 C256.95 596 129.9 596 -1 596 C-0.67 399.32 -0.34 202.64 0 0 Z " fill="#000000" transform="translate(1478,295)"/>
<path d="M0 0 C0 52.47 0 104.94 0 159 C32.67 159 65.34 159 99 159 C99 189.36 99 219.72 99 251 C66.33 251 33.66 251 0 251 C0.03938518 281.99036175 0.09303511 312.9805466 0.17792095 343.97080694 C0.18793772 347.63426477 0.19778197 351.29772305 0.20751953 354.96118164 C0.2094609 355.69047222 0.21140228 356.41976281 0.21340248 357.17115311 C0.244375 368.96054375 0.26138984 380.74991497 0.27319422 392.53933861 C0.28563045 404.6475395 0.3131874 416.75563882 0.35461307 428.86377555 C0.37743588 435.6600494 0.39340603 442.45619228 0.39188385 449.25250816 C0.39113654 455.65555518 0.40911675 462.05828227 0.44116783 468.46124649 C0.44965358 470.80526711 0.45142583 473.14932366 0.44580269 475.49335289 C0.41082961 492.31936262 0.89966421 506.81263256 12.7421875 519.9296875 C25.45531812 532.22080549 43.32261727 532.29055009 59.921875 532.4140625 C61.33936576 532.43104635 62.75684673 532.44886821 64.17431641 532.4675293 C69.36609902 532.53011809 74.55806541 532.57663363 79.75 532.625 C91.3825 532.74875 103.015 532.8725 115 533 C115 566.33 115 599.66 115 634 C104.23375 634.020625 93.4675 634.04125 82.375 634.0625 C79.02520996 634.071604 75.67541992 634.08070801 72.22412109 634.09008789 C29.6744052 634.15999407 29.6744052 634.15999407 11.4375 631.3125 C10.30820068 631.13879883 9.17890137 630.96509766 8.01538086 630.78613281 C-20.7610297 626.10070385 -49.0058792 615.5271657 -71 596 C-71.82628906 595.31679688 -72.65257813 594.63359375 -73.50390625 593.9296875 C-99.86736493 571.5681936 -113.06437471 536.84193679 -116.27097982 503.15306222 C-117.07135064 493.05436055 -117.13765418 483.01561549 -117.12025452 472.89102173 C-117.12069133 470.98565544 -117.12156828 469.08028921 -117.12284368 467.1749233 C-117.12506691 461.97322405 -117.12109728 456.77154561 -117.11606562 451.56984901 C-117.11172994 445.94768401 -117.11320975 440.32552009 -117.1139679 434.70335388 C-117.11449116 424.97384999 -117.11136502 415.24435282 -117.10573006 405.51485062 C-117.09758827 391.44778195 -117.09499709 377.38071653 -117.09374207 363.31364577 C-117.09155576 340.48839188 -117.0849157 317.66314237 -117.07543945 294.83789062 C-117.06624715 272.67089863 -117.05916739 250.50390759 -117.05493164 228.33691406 C-117.05473435 227.31101862 -117.05473435 227.31101862 -117.05453308 226.26439801 C-117.0532145 219.39575213 -117.05193869 212.52710624 -117.05069422 205.65846035 C-117.04026269 148.10563775 -117.02262518 90.55281902 -117 33 C-114.60526802 32.19769818 -112.21021198 31.39638732 -109.81496143 30.59563637 C-109.14175626 30.36998106 -108.46855109 30.14432574 -107.77494577 29.91183239 C-102.70344571 28.2176304 -97.61261625 26.64445402 -92.46948242 25.18505859 C-91.63479431 24.94530807 -90.8001062 24.70555756 -89.94012451 24.45854187 C-87.24609095 23.68549756 -84.5508019 22.91693693 -81.85546875 22.1484375 C-79.95021628 21.60256393 -78.04505132 21.05638484 -76.13996887 20.50991821 C-71.1684526 19.08463938 -66.19587726 17.66309327 -61.22302246 16.24249268 C-55.18339516 14.51648586 -49.14490699 12.78649899 -43.10639668 11.05658913 C-38.4088836 9.71084802 -33.71116633 8.36583826 -29.01274109 7.02328491 C-28.15131154 6.7768606 -27.28988199 6.53043629 -26.40234852 6.27654457 C-24.75334899 5.80492128 -23.10415512 5.33397685 -21.45474529 4.86379051 C-16.60648777 3.47734022 -11.78241071 2.03348479 -6.99092102 0.45986938 C-5 0 -5 0 0 0 Z " fill="#000000" transform="translate(5089,262)"/>
<path d="M0 0 C0 52.47 0 104.94 0 159 C32.67 159 65.34 159 99 159 C99 189.36 99 219.72 99 251 C66.33 251 33.66 251 0 251 C0.06144539 281.75257026 0.13354143 312.50502992 0.22898628 343.25750773 C0.24025377 346.89221184 0.25139234 350.52691634 0.26245117 354.16162109 C0.26465486 354.88519276 0.26685854 355.60876442 0.269129 356.3542625 C0.30445354 368.05379073 0.32934497 379.75331889 0.35034702 391.45288059 C0.37214773 403.4672729 0.40523852 415.4815963 0.44870156 427.49592996 C0.4727785 434.24017192 0.49172495 440.98434552 0.49761391 447.72863007 C0.50367374 454.08156131 0.52370659 460.43429794 0.55427551 466.78715706 C0.56304124 469.11386067 0.56678137 471.44058974 0.56500816 473.76730919 C0.48063929 498.06104188 0.48063929 498.06104188 11.81640625 519.06640625 C25.42099717 531.79150847 43.68029568 532.4415477 61.3125 532.51171875 C62.72592605 532.52724811 64.13933863 532.5440558 65.55273438 532.56213379 C70.70167532 532.61928524 75.8508641 532.65202277 81 532.6875 C92.55 532.790625 104.1 532.89375 116 533 C116 566.33 116 599.66 116 634 C105.23375 634.020625 94.4675 634.04125 83.375 634.0625 C80.02520996 634.071604 76.67541992 634.08070801 73.22412109 634.09008789 C31.24498333 634.15797389 31.24498333 634.15797389 14.9375 631.75 C14.04377686 631.62141602 13.15005371 631.49283203 12.22924805 631.36035156 C-21.81488615 626.18939301 -51.77908146 613.76256611 -77 590 C-77.67546875 589.38898437 -78.3509375 588.77796875 -79.046875 588.1484375 C-102.33980469 566.25308359 -114.48619757 531.14401327 -116.11477152 499.79039688 C-116.29180396 493.99165327 -116.26004454 488.19187172 -116.24050903 482.39112854 C-116.2413828 480.44365077 -116.24313693 478.49617323 -116.24568737 476.54869694 C-116.25013123 471.23521847 -116.24219824 465.92182158 -116.23213124 460.6083535 C-116.22345607 454.86418732 -116.22641977 449.12002538 -116.22793579 443.37585449 C-116.22898208 433.43627911 -116.22273231 423.49673008 -116.21146011 413.55716133 C-116.19517326 399.18639666 -116.18999385 384.81564467 -116.18748413 370.44487178 C-116.18311202 347.12657071 -116.16983332 323.80828368 -116.15087891 300.48999023 C-116.13249296 277.84480868 -116.11833411 255.19963089 -116.10986328 232.55444336 C-116.10960023 231.85570403 -116.10933718 231.1569647 -116.10906615 230.43705145 C-116.10642898 223.41965121 -116.10387737 216.40225094 -116.10138843 209.38485065 C-116.08052698 150.58989119 -116.04525342 91.79494567 -116 33 C-114.74996467 32.5241994 -113.4992375 32.05021621 -112.24823284 31.5769701 C-111.55181106 31.31282018 -110.85538928 31.04867025 -110.13786381 30.77651578 C-106.73931538 29.54209361 -103.28110338 28.5449305 -99.8059082 27.55151367 C-99.02892578 27.32662766 -98.25194336 27.10174164 -97.45141602 26.87004089 C-94.90206748 26.132989 -92.35144817 25.40044387 -89.80078125 24.66796875 C-88.00156504 24.14881395 -86.20242808 23.62938443 -84.40336609 23.10969543 C-79.669422 21.74304957 -74.93437616 20.38026 -70.19909668 19.01824951 C-65.45169107 17.65196758 -60.70540273 16.28181615 -55.95898438 14.91210938 C-38.16984155 9.78056636 -38.16984155 9.78056636 -32.45709705 8.1433897 C-28.04374491 6.87854325 -23.63443165 5.60126295 -19.22909546 4.30874634 C-17.32094602 3.75310309 -15.41279383 3.19746931 -13.50463867 2.6418457 C-12.61349774 2.3777978 -11.72235682 2.1137499 -10.80421162 1.84170055 C-9.97249534 1.60058198 -9.14077906 1.35946341 -8.28385925 1.11103821 C-7.5518439 0.896144 -6.81982855 0.68124979 -6.06563091 0.45984364 C-4 0 -4 0 0 0 Z " fill="#000000" transform="translate(3306,262)"/>
<path d="M0 0 C38.61 0 77.22 0 117 0 C117 141.9 117 283.8 117 430 C78.39 430 39.78 430 0 430 C0 288.1 0 146.2 0 0 Z " fill="#000000" transform="translate(1919,461)"/>
<path d="M0 0 C0.91136719 0.41894531 1.82273437 0.83789062 2.76171875 1.26953125 C10.75496819 5.22624674 16.75008822 10.75906797 23 17 C24.00546875 17.98806641 24.00546875 17.98806641 25.03125 18.99609375 C39.12397527 33.88954204 44.5115296 54.43639372 44.21484375 74.4765625 C43.51338812 94.94512498 34.22333922 114.40630253 19.56835938 128.56835938 C10.85806628 136.51934921 1.14478792 142.10959592 -10 146 C-10.95390625 146.33902344 -11.9078125 146.67804688 -12.890625 147.02734375 C-33.96583791 153.14140953 -56.42570065 149.25151319 -75.390625 139.0859375 C-79.98546113 136.50700819 -84.02226467 133.44392669 -88 130 C-88.99 129.278125 -89.98 128.55625 -91 127.8125 C-104.37015547 116.40527594 -112.50130897 97.39039676 -114.75 80.3125 C-114.85501491 78.87642112 -114.93801456 77.43857864 -115 76 C-115.0515625 75.20980469 -115.103125 74.41960937 -115.15625 73.60546875 C-115.62342929 60.6217777 -112.85793595 47.5718243 -107 36 C-106.50757813 35.01644531 -106.01515625 34.03289062 -105.5078125 33.01953125 C-95.49485068 14.50273821 -78.62843856 1.23487881 -58.625 -5.0625 C-38.6613502 -10.25304895 -18.59752443 -9.07767276 0 0 Z " fill="#000000" transform="translate(2013,247)"/>
</svg>
